<mxfile host="app.diagrams.net" modified="2023-12-15T20:46:18.804Z" agent="Mozilla/5.0 (Macintosh; Intel Mac OS X 10_15_7) AppleWebKit/605.1.15 (KHTML, like Gecko) Version/15.6.1 Safari/605.1.15" version="22.1.11" etag="0TxA8Klz7GAFj6iZ5E-o" type="github">
  <diagram name="Page-1" id="N4ASFvoa3PIrVub-n6QB">
    <mxGraphModel>
      <root>
        <mxCell id="0" />
        <mxCell id="1" parent="0" />
      </root>
    </mxGraphModel>
  </diagram>
</mxfile>
